<?xml version="1.0" standalone="no"?><!DOCTYPE svg PUBLIC "-//W3C//DTD SVG 1.1//EN" "http://www.w3.org/Graphics/SVG/1.1/DTD/svg11.dtd"><svg t="1554106743634" class="icon" style="" viewBox="0 0 1024 1024" version="1.1" xmlns="http://www.w3.org/2000/svg" p-id="2108" xmlns:xlink="http://www.w3.org/1999/xlink" width="200" height="200"><defs><style type="text/css"></style></defs><path d="M491.373714 439.588571L310.345143 258.633143a36.571429 36.571429 0 1 0-51.712 51.712L439.588571 491.373714 258.633143 672.329143a36.571429 36.571429 0 1 0 51.712 51.712l181.028571-180.955429 180.955429 180.955429a36.571429 36.571429 0 1 0 51.712-51.712L543.085714 491.373714l180.955429-181.028571a36.571429 36.571429 0 1 0-51.712-51.712L491.373714 439.588571zM512 1024A512 512 0 1 1 512 0a512 512 0 0 1 0 1024z" p-id="2109" fill="#dbdbdb"></path></svg>